<svg xmlns="http://www.w3.org/2000/svg" viewBox="0 0 100 100">
  <rect width="100" height="100" rx="18" fill="#060C1A"/>
  <defs>
    <linearGradient id="f1" x1="0%" y1="0%" x2="100%" y2="100%">
      <stop offset="0%" stop-color="#5BBFFF"/>
      <stop offset="40%" stop-color="#2D7FE8"/>
      <stop offset="100%" stop-color="#0F2F8A"/>
    </linearGradient>
    <linearGradient id="f2" x1="0%" y1="0%" x2="100%" y2="0%">
      <stop offset="0%" stop-color="#7DD4FF"/>
      <stop offset="100%" stop-color="#2A70D0"/>
    </linearGradient>
    <linearGradient id="f3" x1="0%" y1="0%" x2="0%" y2="100%">
      <stop offset="0%" stop-color="#1A50C8"/>
      <stop offset="100%" stop-color="#0A1F6A"/>
    </linearGradient>
  </defs>
  <path d="M10 12 L46 12 L88 46 L72 46 L34 18 L10 18 Z" fill="url(#f1)"/>
  <path d="M46 12 L88 46 L88 54 L72 54 L72 46 L88 46 Z" fill="url(#f3)"/>
  <path d="M10 12 L46 12 L34 18 L10 18 Z" fill="url(#f2)"/>
  <path d="M10 88 L46 88 L88 54 L72 54 L34 82 L10 82 Z" fill="url(#f1)"/>
  <path d="M10 88 L46 88 L34 82 L10 82 Z" fill="url(#f3)" opacity="0.8"/>
  <path d="M12 13 L42 13 L30 19 L12 19 Z" fill="white" opacity="0.22"/>
</svg>
